<svg xmlns="http://www.w3.org/2000/svg" viewBox="0 0 1200 1600" role="img" aria-labelledby="title description">
  <title id="title">SudoLabs carpet image placeholder</title>
  <desc id="description">Replace this file or update the carpet image path in sudolabs-hero-v2.css.</desc>
  <defs>
    <pattern id="grid" width="120" height="120" patternUnits="userSpaceOnUse">
      <rect width="120" height="120" fill="#681d22"/>
      <path d="M60 12 74 46 108 60 74 74 60 108 46 74 12 60 46 46Z" fill="none" stroke="#d7b06a" stroke-width="3" opacity=".45"/>
      <circle cx="60" cy="60" r="5" fill="#214e63"/>
    </pattern>
  </defs>
  <rect width="1200" height="1600" fill="#3b1114"/>
  <rect x="30" y="30" width="1140" height="1540" fill="url(#grid)" stroke="#f3e7d2" stroke-width="8"/>
  <rect x="70" y="70" width="1060" height="1460" fill="none" stroke="#b78a3d" stroke-width="12"/>
  <rect x="110" y="110" width="980" height="1380" fill="none" stroke="#214e63" stroke-width="18"/>
  <g transform="translate(600 800)">
    <path d="M0-360 94-226 254-254 226-94 360 0 226 94 254 254 94 226 0 360-94 226-254 254-226 94-360 0-226-94-254-254-94-226Z" fill="#7a2528" stroke="#f3e7d2" stroke-width="18"/>
    <path d="M0-250 66-157 177-177 157-66 250 0 157 66 177 177 66 157 0 250-66 157-177 177-157 66-250 0-157-66-177-177-66-157Z" fill="#441719" stroke="#b78a3d" stroke-width="14"/>
    <circle r="96" fill="#214e63" stroke="#f3e7d2" stroke-width="12"/>
  </g>
  <g font-family="Arial, sans-serif" text-anchor="middle" fill="#fff9ee">
    <text x="600" y="1325" font-size="48" font-weight="700">CARPET IMAGE PLACEHOLDER</text>
    <text x="600" y="1395" font-size="30" opacity=".85">Replace this file or update the CSS image path</text>
  </g>
</svg>
